<?xml version="1.0" encoding="UTF-8" standalone="no"?>
<svg
   xmlns:dc="http://purl.org/dc/elements/1.1/"
   xmlns:cc="http://creativecommons.org/ns#"
   xmlns:rdf="http://www.w3.org/1999/02/22-rdf-syntax-ns#"
   xmlns:svg="http://www.w3.org/2000/svg"
   xmlns="http://www.w3.org/2000/svg"
   xmlns:sodipodi="http://sodipodi.sourceforge.net/DTD/sodipodi-0.dtd"
   xmlns:inkscape="http://www.inkscape.org/namespaces/inkscape"
   width="35"
   height="50"
   viewBox="0 0 35 50"
   fill="none"
   version="1.1"
   id="svg30"
   sodipodi:docname="bmc-new-btn-logo.svg"
   inkscape:version="0.92.5 (2060ec1f9f, 2020-04-08)">
  <metadata
     id="metadata36">
    <rdf:RDF>
      <cc:Work
         rdf:about="">
        <dc:format>image/svg+xml</dc:format>
        <dc:type
           rdf:resource="http://purl.org/dc/dcmitype/StillImage" />
        <dc:title></dc:title>
      </cc:Work>
    </rdf:RDF>
  </metadata>
  <defs
     id="defs34" />
  <sodipodi:namedview
     pagecolor="#ffffff"
     bordercolor="#666666"
     borderopacity="1"
     objecttolerance="10"
     gridtolerance="10"
     guidetolerance="10"
     inkscape:pageopacity="0"
     inkscape:pageshadow="2"
     inkscape:window-width="1920"
     inkscape:window-height="1030"
     id="namedview32"
     showgrid="false"
     inkscape:zoom="4.72"
     inkscape:cx="17.5"
     inkscape:cy="25"
     inkscape:window-x="0"
     inkscape:window-y="26"
     inkscape:window-maximized="0"
     inkscape:current-layer="svg30" />
  <path
     d="M30.7512 11.6307L30.7171 11.6106L30.6382 11.5865C30.6699 11.6134 30.7097 11.6289 30.7512 11.6307Z"
     fill="#0D0C22"
     id="path2" />
  <path
     d="M31.2481 15.2031L31.21 15.2138L31.2481 15.2031Z"
     fill="#0D0C22"
     id="path4" />
  <path
     d="M30.7659 11.6253C30.761 11.6247 30.7563 11.6236 30.7517 11.6219C30.7514 11.6251 30.7514 11.6283 30.7517 11.6314C30.7569 11.6307 30.7618 11.6286 30.7659 11.6253Z"
     fill="#0D0C22"
     id="path6" />
  <path
     d="M30.7515 11.6314H30.7572V11.6278L30.7515 11.6314Z"
     fill="#0D0C22"
     id="path8" />
  <path
     d="M31.2178 15.1962L31.2753 15.1634L31.2967 15.1514L31.3161 15.1307C31.2796 15.1464 31.2463 15.1686 31.2178 15.1962Z"
     fill="#0D0C22"
     id="path10" />
  <path
     d="M30.8507 11.7088L30.7945 11.6553L30.7563 11.6345C30.7768 11.6707 30.8107 11.6973 30.8507 11.7088Z"
     fill="#0D0C22"
     id="path12" />
  <path
     d="M16.715 46.3714C16.6701 46.3908 16.6307 46.4212 16.6006 46.4597L16.636 46.4369C16.6601 46.4149 16.6942 46.3888 16.715 46.3714Z"
     fill="#0D0C22"
     id="path14" />
  <path
     d="M24.9235 44.7473C24.9235 44.6965 24.8987 44.7059 24.9048 44.8864C24.9048 44.8717 24.9108 44.857 24.9134 44.843C24.9168 44.8109 24.9195 44.7794 24.9235 44.7473Z"
     fill="#0D0C22"
     id="path16" />
  <path
     d="M24.0719 46.3714C24.027 46.3908 23.9877 46.4212 23.9575 46.4597L23.993 46.4369C24.017 46.4149 24.0512 46.3888 24.0719 46.3714Z"
     fill="#0D0C22"
     id="path18" />
  <path
     d="M10.9344 46.7574C10.9003 46.7277 10.8586 46.7082 10.814 46.7012C10.8501 46.7186 10.8862 46.736 10.9103 46.7493L10.9344 46.7574Z"
     fill="#0D0C22"
     id="path20" />
  <path
     d="M9.63391 45.5042C9.62859 45.4515 9.61242 45.4005 9.58643 45.3544C9.60484 45.4024 9.62025 45.4516 9.63258 45.5015L9.63391 45.5042Z"
     fill="#0D0C22"
     id="path22" />
  <path
     d="M18.3715 23.0976C16.5857 23.8665 14.5591 24.7382 11.9326 24.7382C10.8339 24.736 9.74049 24.5844 8.68213 24.2875L10.4987 43.0444C10.563 43.8284 10.9181 44.5594 11.4935 45.0923C12.0689 45.6251 12.8225 45.9208 13.6047 45.9207C13.6047 45.9207 16.1804 46.0552 17.0398 46.0552C17.9648 46.0552 20.7385 45.9207 20.7385 45.9207C21.5205 45.9207 22.274 45.6249 22.8493 45.092C23.4245 44.5592 23.7795 43.8283 23.8438 43.0444L25.7895 22.3173C24.92 22.0187 24.0425 21.8203 23.0533 21.8203C21.3424 21.8196 19.964 22.4122 18.3715 23.0976Z"
     fill="#FFDD00"
     id="path24" />
  <path
     d="M3.05859 15.095L3.08936 15.1238L3.10943 15.1358C3.09397 15.1205 3.07693 15.1068 3.05859 15.095Z"
     fill="#0D0C22"
     id="path26" />
  <path
     d="M34.1896 13.3639L33.916 11.9762C33.6706 10.7312 33.1134 9.55468 31.8426 9.10468C31.4353 8.96073 30.9732 8.89885 30.6608 8.60086C30.3485 8.30288 30.2562 7.84009 30.1839 7.41094C30.0502 6.62326 29.9244 5.83492 29.7873 5.04859C29.6689 4.37257 29.5753 3.61315 29.267 2.99296C28.8657 2.16022 28.033 1.67322 27.205 1.35102C26.7807 1.19173 26.3477 1.05698 25.9081 0.947426C23.8394 0.398542 21.6644 0.196746 19.5362 0.0817228C16.9817 -0.0600379 14.4204 -0.0173274 11.872 0.209526C9.97525 0.383071 7.97745 0.592939 6.17495 1.25281C5.51616 1.49429 4.8373 1.7842 4.33634 2.29609C3.72169 2.92502 3.52104 3.89768 3.96982 4.68199C4.28886 5.23895 4.82927 5.63245 5.40246 5.89276C6.14906 6.22818 6.92877 6.48341 7.72865 6.65421C9.95585 7.14928 12.2626 7.34368 14.538 7.42641C17.0599 7.52878 19.5859 7.44582 22.0958 7.1782C22.7165 7.10959 23.336 7.0273 23.9545 6.93134C24.6828 6.81901 25.1503 5.86115 24.9356 5.19388C24.6788 4.39611 23.9886 4.08669 23.208 4.2071C23.093 4.22526 22.9786 4.24208 22.8636 4.25889L22.7807 4.271C22.5163 4.30463 22.2518 4.33602 21.9874 4.36517C21.4412 4.42437 20.8937 4.4728 20.3448 4.51046C19.1155 4.59656 17.8828 4.63625 16.6508 4.63827C15.4403 4.63827 14.229 4.60396 13.0211 4.52392C12.47 4.48759 11.9202 4.4414 11.3718 4.38535C11.1223 4.35912 10.8735 4.33154 10.6247 4.3006L10.3879 4.27033L10.3364 4.26293L10.091 4.22728C9.58933 4.15127 9.08771 4.06382 8.59144 3.95822C8.54136 3.94704 8.49657 3.91902 8.46446 3.87879C8.43236 3.83855 8.41486 3.7885 8.41486 3.73691C8.41486 3.68533 8.43236 3.63528 8.46446 3.59504C8.49657 3.55481 8.54136 3.52679 8.59144 3.51561H8.6008C9.03086 3.42346 9.46426 3.34476 9.899 3.27615C10.0439 3.25328 10.1893 3.23086 10.3351 3.20888H10.3391C10.6113 3.19072 10.8849 3.14162 11.1557 3.10933C13.5125 2.86279 15.8832 2.77874 18.2513 2.85776C19.4011 2.89139 20.5501 2.95933 21.6945 3.07637C21.9406 3.10193 22.1854 3.12884 22.4302 3.15911C22.5238 3.17054 22.6181 3.18399 22.7124 3.19543L22.9024 3.22301C23.4562 3.30597 24.0071 3.40664 24.5551 3.52503C25.367 3.70261 26.4097 3.76046 26.7709 4.65508C26.8859 4.93894 26.9381 5.25442 27.0016 5.5524L27.0826 5.93245C27.0847 5.93927 27.0863 5.94624 27.0873 5.9533C27.2785 6.85017 27.4701 7.74704 27.6618 8.64391C27.6758 8.71017 27.6762 8.77862 27.6628 8.84501C27.6493 8.9114 27.6225 8.97429 27.5838 9.02977C27.5451 9.08525 27.4955 9.13212 27.4381 9.16746C27.3806 9.2028 27.3165 9.22585 27.2498 9.23517H27.2444L27.1274 9.25132L27.0117 9.26679C26.6452 9.31477 26.2782 9.35961 25.9108 9.40132C25.1871 9.48428 24.4623 9.55603 23.7364 9.61657C22.294 9.7372 20.8486 9.81635 19.4004 9.85401C18.6625 9.87374 17.9247 9.88294 17.1872 9.88159C14.2517 9.87926 11.3188 9.70768 8.40283 9.36769C8.08714 9.33002 7.77145 9.28966 7.45577 9.24863C7.70056 9.28024 7.27786 9.22441 7.19225 9.2123C6.9916 9.18405 6.79095 9.15468 6.5903 9.12419C5.91679 9.02262 5.24729 8.8975 4.57511 8.78786C3.76249 8.65333 2.98531 8.72059 2.25026 9.12419C1.6469 9.45624 1.15857 9.96544 0.850401 10.5838C0.533376 11.243 0.439071 11.9608 0.297279 12.6691C0.155487 13.3774 -0.0652275 14.1395 0.0183763 14.8666C0.198292 16.4359 1.28915 17.7113 2.85823 17.9965C4.33434 18.2655 5.81847 18.4835 7.30662 18.6691C13.1524 19.3892 19.0582 19.4753 24.9223 18.9261C25.3998 18.8812 25.8767 18.8324 26.3529 18.7794C26.5016 18.763 26.6521 18.7802 26.7934 18.8299C26.9347 18.8795 27.0631 18.9603 27.1693 19.0663C27.2755 19.1724 27.3567 19.3009 27.4071 19.4426C27.4575 19.5843 27.4757 19.7356 27.4605 19.8853L27.312 21.3369C27.0128 24.2701 26.7136 27.2031 26.4144 30.1358C26.1023 33.2157 25.7882 36.2953 25.472 39.3747C25.3829 40.242 25.2937 41.109 25.2045 41.9758C25.1189 42.8294 25.1069 43.7099 24.9457 44.5534C24.6915 45.8799 23.7986 46.6945 22.4957 46.9925C21.3021 47.2657 20.0827 47.4091 18.8586 47.4203C17.5016 47.4277 16.1452 47.3672 14.7881 47.3746C13.3395 47.3826 11.5651 47.2481 10.4468 46.1638C9.46426 45.2113 9.32849 43.72 9.19472 42.4306C9.01637 40.7234 8.83957 39.0164 8.66434 37.3097L7.68116 27.8192L7.0451 21.6786C7.0344 21.577 7.0237 21.4768 7.01367 21.3745C6.93742 20.642 6.42176 19.925 5.60913 19.962C4.91354 19.9929 4.12299 20.5875 4.20458 21.3745L4.67611 25.927L5.65126 35.3442C5.92905 38.0191 6.20617 40.6944 6.48262 43.3703C6.53613 43.8828 6.58628 44.3967 6.64247 44.9093C6.94812 47.7102 9.075 49.2196 11.7089 49.6448C13.2472 49.8936 14.8229 49.9448 16.384 49.9703C18.3851 50.0026 20.4063 50.08 22.3747 49.7154C25.2915 49.1773 27.4799 47.2185 27.7922 44.1801C27.8814 43.303 27.9706 42.4256 28.0597 41.548C28.3563 38.6458 28.6523 35.7433 28.9479 32.8406L29.9151 23.3562L30.3585 19.0095C30.3806 18.794 30.4711 18.5913 30.6166 18.4315C30.7621 18.2717 30.9549 18.1633 31.1665 18.1223C32.0005 17.9588 32.7977 17.6796 33.391 17.0413C34.3354 16.0249 34.5233 14.6998 34.1896 13.3639ZM2.81542 14.3016C2.82813 14.2955 2.80472 14.4052 2.79469 14.4563C2.79268 14.3789 2.7967 14.3103 2.81542 14.3016ZM2.89635 14.9312C2.90304 14.9265 2.9231 14.9534 2.94384 14.9857C2.9124 14.9561 2.89234 14.9339 2.89568 14.9312H2.89635ZM2.97594 15.0368C3.0047 15.0859 3.02009 15.1168 2.97594 15.0368V15.0368ZM3.13579 15.1673H3.1398C3.1398 15.172 3.14716 15.1767 3.14984 15.1814C3.1454 15.1762 3.14048 15.1715 3.13513 15.1673H3.13579ZM31.1277 14.9722C30.828 15.2588 30.3766 15.392 29.9305 15.4586C24.9276 16.2052 19.8519 16.5832 14.7942 16.4164C11.1745 16.292 7.59287 15.8877 4.00928 15.3785C3.65815 15.3287 3.27758 15.2642 3.03614 15.0038C2.58133 14.5128 2.80472 13.524 2.9231 12.9307C3.03145 12.3872 3.23879 11.6628 3.88154 11.5854C4.88478 11.467 6.04989 11.8928 7.04243 12.0442C8.2374 12.2276 9.43684 12.3744 10.6407 12.4848C15.7787 12.9556 21.0029 12.8823 26.1181 12.1935C27.0505 12.0675 27.9795 11.9211 28.9051 11.7543C29.7298 11.6056 30.6441 11.3264 31.1424 12.1854C31.4841 12.7706 31.5296 13.5536 31.4768 14.2148C31.4605 14.5029 31.3354 14.7739 31.127 14.9722H31.1277Z"
     fill="#0D0C22"
     id="path28" />
  <path
     style="fill:#ffffff;stroke-width:0.21186441"
     d="M 14.788136,49.767394 C 11.364181,49.603017 10.02421,49.2805 8.6602911,48.292481 6.9617949,47.062097 6.9272155,46.899875 5.5920057,33.898305 4.9398208,27.547669 4.4063417,22.000983 4.4064972,21.572337 c 1.553e-4,-0.428648 0.1501009,-0.929177 0.3332123,-1.112288 0.5012824,-0.501283 1.5073096,-0.423627 1.8624699,0.143765 0.199482,0.318685 0.6920312,4.268917 1.4859609,11.917372 0.6531646,6.292373 1.287193,11.794259 1.4089514,12.226414 0.1217587,0.432154 0.5091813,1.073536 0.8609383,1.425294 1.037828,1.037826 2.301033,1.285339 6.534237,1.280318 3.909794,-0.0046 5.895496,-0.271246 6.894237,-0.925646 1.129004,-0.739752 1.240754,-1.372812 2.538144,-14.378394 0.671363,-6.730034 1.163619,-12.463691 1.093903,-12.741463 -0.06972,-0.277771 -0.271788,-0.560692 -0.449049,-0.628713 -0.177258,-0.06802 -1.345983,-0.02328 -2.597167,0.09943 C 17.941945,19.509087 5.4962508,18.826662 2.3471267,17.670738 1.2584997,17.271144 0.44835142,16.356464 0.2509197,15.304063 0.06455712,14.310665 0.51557856,11.575994 1.0330798,10.561604 1.8575314,8.9455403 3.0953377,8.6388307 6.5254237,9.2006852 7.5158898,9.3629252 9.8394161,9.6134456 11.688815,9.757397 16.935478,10.165781 26.932934,9.7543271 27.590195,9.1029617 27.710347,8.983886 27.630646,8.1064252 27.384443,6.8377718 26.870708,4.1905678 26.50547,3.7671597 24.422843,3.4044858 19.634906,2.5707025 13.405877,2.5329879 9.1207627,3.3118373 8.0756492,3.5017939 8.2820792,3.956039 9.5444915,4.2442441 11.092656,4.5976856 19.323183,4.7558282 21.754767,4.4788542 c 2.114451,-0.2408504 2.590072,-0.1432428 2.995761,0.614795 0.330288,0.61715 -0.165081,1.5096682 -0.958155,1.7263322 -0.349576,0.095503 -2.099958,0.2834067 -3.889737,0.4175648 C 14.785613,7.6211076 8.3335561,7.0251144 5.787343,5.9336799 4.5416919,5.3997316 3.6970299,4.3432403 3.8608644,3.524068 4.3180197,1.2382915 8.4858358,0.17646316 16.90678,0.20037962 c 5.333375,0.0151475 9.281059,0.60105809 11.063436,1.64202298 1.011888,0.5909739 1.41036,1.4673942 1.860795,4.0927324 0.223656,1.3035639 0.513343,2.4986767 0.64375,2.6558059 0.130404,0.1571292 0.586995,0.3979587 1.014644,0.5351767 1.516176,0.4864888 2.143815,1.5087984 2.592599,4.2228624 0.24417,1.476649 0.231356,1.662034 -0.178989,2.589688 -0.456701,1.032448 -1.347797,1.767654 -2.419727,1.996414 -0.314489,0.06711 -0.711659,0.277927 -0.882599,0.468472 -0.230791,0.257259 -0.642543,3.618933 -1.599437,13.05831 -0.70875,6.991526 -1.387222,13.123825 -1.507714,13.627331 -0.629108,2.628866 -3.01693,4.405856 -6.197301,4.611966 -0.841109,0.05451 -1.958313,0.124894 -2.482678,0.156411 -0.524364,0.03152 -2.335805,-0.0091 -4.025423,-0.09018 z m 8.485192,-33.466071 c 4.082346,-0.321052 7.19025,-0.784835 7.759706,-1.157957 0.416888,-0.273155 0.49239,-0.502032 0.49239,-1.492626 0,-0.974421 -0.09114,-1.261141 -0.545227,-1.715226 -0.457871,-0.457873 -0.670021,-0.523974 -1.324153,-0.412577 -8.651733,1.473369 -16.322988,1.53863 -23.6849518,0.201495 -1.0622977,-0.192942 -2.0914964,-0.289389 -2.2871087,-0.214325 -0.8651481,0.331988 -1.3065043,2.960325 -0.6013564,3.58116 0.3711481,0.326771 4.081042,0.877123 8.1942299,1.215592 2.975892,0.244881 8.846732,0.242172 11.996471,-0.0055 z"
     id="path3742"
     inkscape:connector-curvature="0" />
</svg>
