<?xml version="1.0" standalone="no"?>
<!DOCTYPE svg PUBLIC "-//W3C//DTD SVG 20010904//EN"
 "http://www.w3.org/TR/2001/REC-SVG-20010904/DTD/svg10.dtd">
<svg version="1.0" xmlns="http://www.w3.org/2000/svg"
 width="512.000000pt" height="512.000000pt" viewBox="0 0 512.000000 512.000000"
 preserveAspectRatio="xMidYMid meet">
<metadata>
Created by potrace 1.16, written by Peter Selinger 2001-2019
</metadata>
<g transform="translate(0.000000,512.000000) scale(0.100000,-0.100000)"
fill="#000000" stroke="none">
<path d="M2760 2549 l0 -2372 83 6 c356 28 712 245 994 607 358 460 564 1169
540 1860 -28 783 -299 1462 -756 1892 -232 218 -499 343 -793 373 l-68 7 0
-2373z m1394 275 l39 -7 -6 -111 c-20 -366 -120 -515 -367 -548 -68 -9 -126
-8 -295 6 -115 9 -285 16 -377 16 -93 0 -168 2 -168 5 0 13 51 138 80 195 125
247 320 394 593 446 72 14 411 12 501 -2z"/>
<path d="M1385 2845 c-5 -2 -41 -7 -79 -10 l-69 -7 6 -141 c10 -251 72 -409
187 -482 96 -61 220 -73 500 -50 113 10 280 17 373 17 92 -1 167 1 167 3 0 18
-61 167 -96 236 -122 238 -313 375 -592 424 -68 13 -369 20 -397 10z"/>
</g>
</svg>
